<?xml version="1.0" encoding="UTF-8"?>
<svg id="Capa_1" data-name="Capa 1" xmlns="http://www.w3.org/2000/svg" viewBox="0 0 655.44 133.45">
  <defs>
    <style>
      .cls-1 {
        fill: #fff;
      }
    </style>
  </defs>
  <path class="cls-1" d="M.03,69.09H.01C.01,87.91-.02,106.74,.03,125.56c.02,5.71,1.98,7.1,7.52,5.46,11.49-3.29,13.42-12.11,13.26-22.87,0-26.65-.08-53.31-.11-79.96-.01-7.68,.87-8.51,8.68-8.3,6.16,.17,12.31,.4,18.47,.54,6.64,.15,13.26-.99,19.94,.13,24.75,3.49,25.57,42.82-2.17,43.24-5.99,.19-11.99,.06-17.99,.2-4.86,.12-8.81,1.92-10.64,6.79-1.76,4.69,.07,8.44,3.42,11.68,11.26,10.92,21.55,22.8,31.21,35.04,8.59,10.89,18.87,15.21,32.15,13.96,1.45-.14,3.27,.39,4.09-1.18,1.03-1.96-.92-2.97-1.93-4.16-10.92-12.78-21.93-25.49-32.8-38.32-3.74-4.42-3.31-5.4,2.39-6.65,8-1.75,15.28-4.97,20.82-11.12,11.4-12.65,13.13-27.2,7.58-42.87C98.17,10.89,85.65,2.34,69.25,1.3,49.5,.04,29.62,.85,9.81,.85c-4.59,0-7.32,2.7-8.8,6.87C-.02,10.61,.05,13.62,.04,16.61c-.02,17.49,0,34.98,0,52.47Z"/>
  <path class="cls-1" d="M542.16,67.89c.91,26.29,12.21,47.45,37.91,58.99,25,11.23,48.75,7.88,70.5-8.71,7.07-5.39,6.31-12.37-1.51-16.63-4.34-2.37-8.32-1.46-11.97,1.7-5.39,4.68-11.57,7.83-18.64,9.07-32.55,5.75-58.61-18.73-54.96-51.61,3.45-35.2,46.61-52.96,73.94-30.57,5.73,4.51,10.95,3.63,15.63-2.13,5.81-6.58-1.12-12.54-7.65-16.74-45.12-29.22-104.25,1.45-103.27,56.62Z"/>
  <path class="cls-1" d="M486.16,133.25c16.26,.17,30.46-5.26,42.92-15.34,5.83-4.72,5.57-10.34-.24-15.05-4.1-3.33-7.84-3.52-12.28-.28-19.62,16.04-48.42,14.34-64.15-6.07-34.17-43.65,19.49-99.92,63.03-66.4,5.86,4.75,11.44,3.94,15.67-1.41,4.04-5.12,3.16-9.3-3.05-14.43-27.37-22.57-71.89-17.51-92.99,10.86-34.15,43.12-4.8,108.26,51.08,108.11Z"/>
  <path class="cls-1" d="M325.11,132.08c12.74,0,22.4-.05,32.05,.02,3.53,.03,5.08-1.41,5.14-5.06,.17-9.43-4.19-14.46-13.66-14.6-13.82-.21-27.64,.08-41.46-.14-16.09-.26-27.34-8.84-31.44-24.25-3.89-14.61-3.81-29.4,.32-43.95,4.21-14.84,14.16-22.26,29.36-23.21,14.48-.91,28.97-.32,43.45-.57,9.04-.16,12.47-3.79,12.67-12.85,.1-4.42-1.52-6.38-6.09-6.34-18.65,.15-37.31-.18-55.95,.24-17.23,.39-30.45,8.21-38.13,23.86-12.39,25.24-11.82,51.33-2.52,77.15,5.9,16.4,18.44,26.1,35.93,28.89,11.1,1.78,22.28,.37,30.33,.83Z"/>
  <path class="cls-1" d="M204.46,132.04s0,.02,0,.03c9.5,0,18.99-.06,28.49,.03,3.72,.04,5.43-1.38,5.53-5.27,.25-9.47-4.08-14.29-13.74-14.41-13.16-.16-26.32-.02-39.49-.14-17.21-.16-28.14-8.4-32.94-25.02-4.08-14.14-3.82-28.41,.34-42.42,4.08-13.74,13.23-23.45,29.41-24.17,14.33-.64,28.65-.09,42.97-.4,9.16-.2,12.98-4.11,13.28-13.11,.14-4.29-1.49-6.05-5.79-6.02-18.49,.12-37-.29-55.48,.23-19.77,.55-34.08,10.43-41.33,28.7-15.67,37.35-6.97,101.9,43.76,101.93,8.32,.24,16.66,.04,24.99,.04Z"/>
  <path class="cls-1" d="M381.6,66.44s.04,0,.06,0c0,18.32-.1,36.64,.05,54.96,.05,6.81,3.8,10.5,9.99,10.66,6,.15,9.85-3.66,10.39-10.38,.32-26.64-.02-53.3,.08-79.95,0-9.49,.07-18.99-.02-28.48-.04-4.69-1.18-9.07-5.86-11.31-7.19-3.44-14.56,1.49-14.64,10.03-.17,18.15-.05,36.31-.05,54.47Z"/>
  <path class="cls-1" d="M200.99,56.44c0,.06,0,.12,0,.18-7.98,0-15.96-.24-23.93,.09-5.3,.22-8.52,3.69-8.9,8.44-.37,4.63,2.41,8.74,7.25,10.04,2.37,.64,4.92,.76,7.4,.78,11.64,.08,23.27,.08,34.91,.02,11.14-.06,12.26-1.33,11.4-12.46-.06-4.5-1.61-7.37-6.67-7.14-7.14,.21-14.29,.06-21.44,.06Z"/>
  <path class="cls-1" d="M325.08,56.38c-8.98,.41-17.48-.42-25.92,.71-4.64,.62-7.06,3.42-7.58,7.91-.53,4.54,1.47,7.7,5.64,9.49,2.8,1.2,5.79,1.47,8.79,1.47,10.8,0,21.61,.02,32.41-.02,13.16-.05,13.28-.31,12.84-13.4-.15-4.36-1.7-6.37-6.26-6.22-6.81,.22-13.63,.06-19.92,.06Z"/>
</svg>